<svg xmlns="http://www.w3.org/2000/svg" width="800" height="280" viewBox="-2.25 0 800 280">
  <path fill="#38B35B" d="M314.734 126.143h18.55v-6.772h-18.55v6.774zm.425-37.91v7.82h7.202l-7.318 12.95v4.476h18.975v-6.69h-9.985l11.855-21.873h-8.196l-2.297 4.363h-2.723l8.622-15.44h-8.31l-7.827 14.393zm32.445 11.588v19.58c0 .284-.005.563-.014.837-.01.273-.112.51-.31.708-.2.198-.715.297-1.547.297h-1.05v5.753h3.405c.944 0 2.046-.142 3.303-.425 1.258-.283 2.17-.67 2.738-1.162.567-.49.95-1.067 1.15-1.728.197-.66.297-1.436.297-2.323V99.824h11.317v-5.808h-1.787V74.18H335.58v5.837h22.094v4.08h-21.272v5.61h21.272v4.307h-22.832v5.808h12.764zm-10.89 6.35c.377 1.15.925 1.893 1.644 2.223.717.33 1.994.496 3.83.496h4.28v-4.393h-.935c-1.797 0-2.888-.08-3.276-.24s-.63-.42-.724-.78l-.425-1.473h-5.842l1.445 4.165h.002zm22.433 16.234c.244 1.133.74 2.007 1.488 2.62.747.615 2.028.922 3.843.922h2.297v-5.44h-.85c-.51 0-.857-.052-1.036-.156-.18-.105-.344-.563-.495-1.375l-1.39-7.197h-6.268l2.41 10.625zm1.985-20.712l-.85 2.41c-.077.226-.238.367-.483.424-.246.057-.813.085-1.702.085h-.964V109h3.375c1.23 0 2.047-.127 2.453-.382.406-.255.827-.675 1.262-1.26.435-.586.803-1.23 1.106-1.928l1.56-3.74h-5.756v.002zm-20.96 10.2l-1.872 6.66c-.19.642-.41 1.1-.666 1.374-.255.274-.808.41-1.66.41h-1.133v5.413h2.525c2.08 0 3.526-.294 4.34-.88.813-.586 1.456-1.653 1.93-3.202l2.92-9.775h-6.382zm83.39-36.522h-36.957l.652-1.473h-8.083l-1.36 2.947c-.512 1.096-1.344 1.643-2.497 1.643h-2.92v6.148h3.97c.964 0 2.028-.127 3.19-.382 1.164-.255 2.02-.647 2.568-1.176l1.673-1.643h30.006l-5.56 7.367h-35.65l.027 30.177c0 1.624.19 3.003.567 4.137.38 1.133 1.027 1.927 1.944 2.38s2.103.68 3.56.68h45.75v-6.092H384.31c-2.1 0-3.357-.26-3.772-.778-.416-.52-.624-1.563-.624-3.13v-5.186l36.815-.057c3.534 0 5.557-.916 6.07-2.75.51-1.83.764-3.492.764-4.985V88.8h-6.098l6.098-7.508V75.37h-.002zm-29.1 29.466h-14.55V94.778h14.55v10.058zm21.5-1.643c0 .51-.125.912-.37 1.204-.247.293-.72.44-1.42.44H401.81v-10.06h14.153v8.416h.002zm12.904 22.242h1.844c1.59 0 2.573-.548 2.95-1.643.38-1.096.615-1.88.71-2.352l3.77-22.043h-5.046l-2.58 17.057c-.152.945-.308 1.587-.47 1.927-.16.34-.43.51-.807.51h-.37v6.546zm16.45 1.247V96.507h9.53V89.99h-9.53v-6.998h3.347c2.023 0 3.394-.345 4.113-1.034.718-.69 1.158-1.577 1.32-2.663.16-1.086.24-2.054.24-2.904V74.07h-6.58v.708c0 .68-.11 1.12-.326 1.318-.216.198-.55.298-1.005.298h-17.188v6.603h9.5v6.998h-9.87v6.518h9.87v30.176h6.58v-.004zm3.66-6.885c.056.472.174 1.072.353 1.8.18.726.497 1.538.95 2.436.454.897 1.428 1.355 2.92 1.374l1.76.028v-6.545h-.51c-.247 0-.455-.113-.625-.34s-.33-.925-.482-2.097l-2.212-17.057h-4.933l2.78 20.4zm7.628.51h8.99v6.177h6.553v-6.177h4.424c1.607 0 2.675-.397 3.205-1.19s.837-1.714.922-2.762c.083-1.048.126-1.81.126-2.28V77.78h-8.68v-3.714h-6.55v3.712h-8.992v42.529zm5.276-6.574v-29.41h3.718v29.41h-3.716zm10.27-29.41h3.544v27.257c0 .718-.1 1.256-.298 1.615-.198.36-.506.538-.922.538h-2.326v-29.41zm13.868 24.905h31.426v7.112c0 .472-.066.897-.198 1.275-.133.378-.322.69-.567.935-.248.245-.796.368-1.647.368H490.53v7.338h25.015c3.006 0 5.166-.18 6.48-.538 1.315-.36 2.308-1.12 2.98-2.28.67-1.163 1.006-2.763 1.006-4.804v-9.407h11.857v-7.225H526.01v-6.8l11.855-13.912v-6.8h-49.237v7.31h38.233l-6.805 8.273h-21.697v7.338h19.088V102H486.02v7.228h-.002zM574 91.01h-13.217v6.885H574v28.673h7.97V97.895h12.962V91.01H581.97V73.896H574V91.01zm-31.51 5.666h5.303v23.942c0 2.02.392 3.504 1.177 4.448.784.944 2.103 1.417 3.957 1.417h8.51v-6.857h-4.88c-.32 0-.595-.11-.822-.326-.227-.217-.34-1.186-.34-2.904v-26.55H542.49v6.83zm0-22.27v6.347h17.98v-6.347h-17.98zm64.894 15.272l3.857 20.003h-10.917v6.83h12.28l1.25 4.448c.547 2.002 1.26 3.39 2.14 4.165.88.774 3.096 1.162 6.65 1.162h6.184v-6.743h-6.38c-.833 0-1.386-.136-1.66-.41-.274-.274-.487-.694-.638-1.26l-.398-1.36c2.818-.152 4.78-.67 5.886-1.56 1.106-.887 1.777-1.883 2.014-2.988.236-1.105.354-2.253.354-3.442V91.947H621.2v13.458c0 1.7-.148 2.824-.44 3.372s-1.093.85-2.398.907l-3.857-20.003h14.55V82.91H613.34l-1.56-8.188h-7.346l1.787 8.187h-6.096v6.772l7.26-.002zm25.243-13.46v38.28h6.835v-38.28h-6.835zm11.912 41.312c0 1.058-.588 1.587-1.76 1.587h-6.18v6.772h9.02c.83 0 1.72-.144 2.665-.427s1.64-.732 2.085-1.346c.444-.614.723-1.356.837-2.224.113-.87.17-1.558.17-2.068V73.98h-6.835v43.55h-.003zM622.64 74.916c0 .605-.156 1.03-.468 1.275-.312.248-.884.37-1.716.37h-1.56v5.24h3.856c.68 0 1.442-.125 2.283-.38.84-.255 1.516-.585 2.027-.992.51-.406.884-1.034 1.12-1.884s.354-1.54.354-2.068v-2.493h-5.898v.934h.002zM314.387 183.533c0 9.973 1.474 18.094 11.314 17.81 4.09-.096 6.42-1.283 8.036-2.566l1.426 2.327h3.994v-19.186c-1.14-.095-2.234-.095-3.233-.095-3.612 0-6.274.427-8.27 1.14v3.562h5.99v7.41s-3.757 2.23-7.132 2.184c-5.276-.05-6.607-2.9-6.607-12.49 0-8.93 1.093-12.635 6.75-12.635 5.183 0 11.6.712 11.886.712v-4.322c-4.42-.997-8.653-1.425-12.884-1.425-9.46 0-11.266 7.695-11.266 17.573h-.003zm29.37 17.572h5.516v-17.192c2.377-2.137 4.374-2.802 7.51-2.802 1.38 0 2.95.097 3.566.19v-5.364c-.62-.237-1.856-.332-3.045-.332-3.423 0-5.895 1.805-8.034 3.467l-1.045-3.18h-4.47v25.216h.003zm24.098-14.485c0-6.27 1.616-6.41 5.8-6.41 3.898 0 4.516.52 4.516 4.368 0 1.33-.76 2.042-2.423 2.042H367.855zm-5.515 1.757c0 9.498 1.902 12.965 8.32 12.965 3.945 0 8.89-.095 12.55-1.33v-3.847c-3.566.57-6.18.522-10.222.522-3.613 0-5.134-.712-5.134-5.746h8.985c4.562 0 6.844-1.945 6.844-6.172 0-8.358-3.47-9.07-10.316-9.07-7.892 0-11.03 1.71-11.03 12.68h.002zm30.465-1.757c0-6.27 1.616-6.41 5.8-6.41 3.898 0 4.516.52 4.516 4.368 0 1.33-.76 2.042-2.423 2.042H392.805zm-5.514 1.757c0 9.498 1.904 12.965 8.32 12.965 3.948 0 8.89-.095 12.55-1.33v-3.847c-3.563.57-6.18.522-10.22.522-3.612 0-5.133-.712-5.133-5.746h8.985c4.565 0 6.847-1.945 6.847-6.172 0-8.358-3.47-9.07-10.317-9.07-7.892 0-11.03 1.71-11.03 12.68h-.002zm25.38 12.728h5.514V182.49c2.567-1.568 4.183-2.376 7.273-2.376 1.95 0 3.328 1.14 3.328 3.847v17.146h5.515V184.01c0-4.56-2.044-8.55-7.654-8.55-3.85 0-6.038 1.616-8.462 3.23l-1.236-2.802h-4.28v25.218h.002zm26.185-23.225c0 3.373.713 8.834 8.795 8.834h5.847c2.71 0 3.423 1.52 3.423 3.752v2.375c0 3.23-2.995 3.47-4.944 3.47-4.42 0-10.126-.333-12.027-.523v4.37c3.04.806 8.222 1.33 12.834 1.33 4.706 0 9.65-1.33 9.65-8.787v-2.66c0-3.848-1.33-8.834-7.938-8.834h-5.99c-2.71 0-4.136-.475-4.136-3.8v-2.23c0-3.8 1.998-4.038 5.088-3.943 1.093 0 8.652.237 11.695.475v-4.37c-2.377-.616-8.795-1.33-12.883-1.28-5.324.046-9.413 1.9-9.413 8.785v3.038h-.002zm32.367 8.74c0-6.27 1.616-6.41 5.8-6.41 3.898 0 4.516.52 4.516 4.368 0 1.33-.76 2.042-2.425 2.042h-7.89zm-5.515 1.757c0 9.498 1.902 12.965 8.32 12.965 3.945 0 8.89-.095 12.55-1.33v-3.847c-3.565.57-6.18.522-10.22.522-3.614 0-5.135-.712-5.135-5.746h8.985c4.564 0 6.846-1.945 6.846-6.172 0-8.358-3.47-9.07-10.316-9.07-7.892 0-11.03 1.71-11.03 12.68zm30.465-1.757c0-6.27 1.616-6.41 5.8-6.41 3.898 0 4.516.52 4.516 4.368 0 1.33-.76 2.042-2.424 2.042h-7.892zm-5.514 1.757c0 9.498 1.9 12.965 8.32 12.965 3.945 0 8.89-.095 12.55-1.33v-3.847c-3.566.57-6.18.522-10.222.522-3.613 0-5.134-.712-5.134-5.746h8.985c4.564 0 6.846-1.945 6.846-6.172 0-8.358-3.47-9.07-10.316-9.07-7.892 0-11.03 1.71-11.03 12.68zm30.465.095c0-6.934 1.426-8.358 3.85-8.358 2.806 0 4.85.285 7.18 1.045v13.533c-1.854.997-4.184 1.805-7.18 1.805-2.472-.002-3.85-2.234-3.85-8.028v.002zm-5.515.142c0 7.124 1.807 12.775 8.272 12.775 3.09 0 6.798-1.807 8.272-2.946l1.093 2.66h4.374v-37.28h-5.47v13.44c-2.566-1.14-6.132-1.758-8.27-1.758-7.037 0-8.273 5.65-8.273 13.107zm25.996-4.18c0 4.893 2.424 6.555 6.893 6.555h6.465c1.616 0 2.044.71 2.044 1.993v1.615c0 2.04-1.76 1.946-2.044 1.946H542.65v3.61c1.76.806 9.793 1.186 13.69 1.186 3.044 0 6.18-1.235 6.18-6.41v-2.47c0-3.658-1.948-6.412-6.512-6.412h-6.56c-1.33 0-2.33-.048-2.33-1.995v-1.52c0-1.377.144-2.137 2.33-2.137h11.79v-3.657c-2.14-.807-9.08-1.09-13.073-1.09-4.897 0-6.56 2.705-6.56 6.6v2.184zm42.44-1.66v-11.4h8.89c1.665 0 3.9.618 3.947 5.51 0 4.94-1.71 5.89-3.944 5.89h-8.89zm-5.513 18.33h5.517V186.86c.238.095 7.32.855 9.223.95 3.802.095 9.174-.617 9.174-10.97 0-9.07-5.04-10.496-9.175-10.496h-14.74v34.763zm28.088 0h5.515v-17.19c2.377-2.138 4.373-2.803 7.51-2.803 1.38 0 2.948.097 3.566.19v-5.364c-.62-.237-1.856-.332-3.044-.332-3.423 0-5.895 1.805-8.034 3.467l-1.046-3.18h-4.47v25.216h.002zm24.097-12.252c0-7.79 1.426-8.548 5.895-8.548 4.516 0 5.847.76 5.847 8.548 0 7.266-1.616 7.788-5.847 7.788-4.04 0-5.895-.57-5.895-7.788zm-5.514 0c0 9.023 2.76 12.49 11.41 12.49 8.7 0 11.363-3.134 11.363-12.49 0-10.02-2.757-13.203-11.362-13.203-8.46 0-11.41 2.895-11.41 13.2v.002zm27.565 25.075h3.946c1.523-3.752 1.618-8.548 1.57-12.633v-25.408h-5.514v38.04zm-.38-41.887c0 .665.475 1.092 1.14 1.092h4.042c.666 0 1.094-.38 1.094-1.092v-3.61c0-.664-.38-1.234-1.092-1.234h-4.04c-.762 0-1.142.475-1.142 1.235v3.61zm16.16 14.58c0-6.27 1.615-6.41 5.8-6.41 3.897 0 4.515.52 4.515 4.368 0 1.33-.76 2.042-2.425 2.042h-7.89zm-5.515 1.757c0 9.498 1.902 12.965 8.32 12.965 3.945 0 8.89-.095 12.55-1.33v-3.847c-3.567.57-6.18.522-10.222.522-3.613 0-5.134-.712-5.134-5.746h8.985c4.562 0 6.844-1.945 6.844-6.172 0-8.358-3.47-9.07-10.316-9.07-7.893 0-11.03 1.71-11.03 12.68h.002zm24.95.095c0 10.638 3.613 12.87 8.32 12.87 3.946-.047 7.94.048 11.695-1.52v-3.61s-5.515.428-9.888.428c-3.423 0-4.61-1.282-4.61-8.026 0-7.978 1.663-8.31 4.61-8.31 4.23 0 9.555.284 9.555.284v-3.514c-3.85-1.092-8.89-1.425-11.362-1.425-4.85 0-8.32 2.183-8.32 12.822zm22.383-8.122h4.28v11.73c0 6.697 2.52 9.024 6.227 9.024h5.23v-3.514c-.334 0-3.566-.997-3.566-.997-1.426-.475-2.377-1.33-2.377-5.177V180.35h6.275v-4.51h-6.275v-7.03h-4.47l-1.045 7.03-4.28 1.186v3.325z"/>
  <g fill="#38B35B">
    <path d="M271.864 61.285s5.123-1.33 3.416-3.99c-3.14-4.893-95.07 4.56-132.64 33.07s-48.96 59.873-40.99 76.98c7.97 17.105 30.114 29.648 58.067 30.22 37.193.76 64.328-2.47 64.328-2.47 1.64.63-7.4 32.12-12.904 35.718-3.93 2.57-74.953 8.187-116.32-11.58-22.307-10.66-47.82-44.095-27.325-87.812 26.878-57.334 98.19-71.815 119.833-77.35 13.69-3.036 96.943-15.07 97.062-1.336.06 7.222-12.526 8.552-12.526 8.552z"/>
    <path d="M242.963 119.682s-3.467-14.378-8.8-17.386c-7.43-4.192-15.655-1.492-19.216 3.255-3.56 4.75-3.152 24.52 7.748 33.105 8.815 6.942 21.106 11.642 28.036 5.89 6.933-5.753 4.387-17.483-7.766-24.862zM217.15 132.45s-24.415 17.598-23.276 29.382c1.14 11.784 14.422 15.206 24.29 14.445 9.866-.76 16.318-.657 18.216 3.905s-8.422 45.893-14.99 51.025c0 0 25.763-1.958 29.41-3.99 4.093-2.282 22.013-55.778 11.766-65.66-10.247-9.885-30.054-4.178-39.47-.675 0 0-9.868 3.257-10.627-4.346-.76-7.603 7.692-15.207 12.194-17.78 4.504-2.57-7.514-6.307-7.514-6.307z"/>
  </g>
</svg>
