<svg xmlns="http://www.w3.org/2000/svg" width="200" height="163" viewBox="0 0 200 163">
  <g fill="none" fill-rule="evenodd" transform="translate(-22 -22)">
    <g stroke="#8ADBA8" stroke-width="7">
      <path d="M123.915 124.12c6.95-26.017.217-54.928-20.195-75.34-20.412-20.412-49.323-27.144-75.34-20.195-6.95 26.018-.218 54.93 20.194 75.34 20.412 20.413 49.323 27.145 75.34 20.196z"/>
      <path d="M29.13 29.338l94.203 94.2M43.5 96.73l60.81 7.785m-74.933-40.29l40.987 6.345M97.23 42.998l7.786 60.81m-40.29-74.932l6.345 40.987m49.164 54.905c26.018 6.95 54.93.217 75.34-20.195 20.413-20.412 27.145-49.323 20.196-75.34-26.02-6.95-54.93-.218-75.34 20.194-20.414 20.412-27.146 49.323-20.197 75.34zm94.783-94.784l-94.2 94.2m26.808-79.832l-7.785 60.81m40.29-74.932l-6.346 40.987m27.572 26.867l-60.81 7.785m74.932-40.29l-40.988 6.34"/>
    </g>
    <path fill="#8ADBA8" d="M117.5 128h9.292v48H117.5z"/>
    <ellipse cx="122.5" cy="178.5" fill="#8ADBA8" rx="17.5" ry="6.5"/>
  </g>
</svg>
